<?xml version="1.0" encoding="UTF-8" standalone="no"?>
<!DOCTYPE svg PUBLIC "-//W3C//DTD SVG 1.1//EN"
 "http://www.w3.org/Graphics/SVG/1.1/DTD/svg11.dtd">
<!-- Generated by graphviz version 2.43.0 (0)
 -->
<!-- Title: soil_cw_radar_cc_impl.h Pages: 1 -->
<svg width="484pt" height="207pt"
 viewBox="0.00 0.00 484.00 207.00" xmlns="http://www.w3.org/2000/svg" xmlns:xlink="http://www.w3.org/1999/xlink">
<g id="graph0" class="graph" transform="scale(1 1) rotate(0) translate(4 203)">
<title>soil_cw_radar_cc_impl.h</title>
<polygon fill="white" stroke="transparent" points="-4,4 -4,-203 480,-203 480,4 -4,4"/>
<!-- Node1 -->
<g id="node1" class="node">
<title>Node1</title>
<g id="a_node1"><a xlink:title=" ">
<polygon fill="#bfbfbf" stroke="black" points="237,-179.5 237,-198.5 361,-198.5 361,-179.5 237,-179.5"/>
<text text-anchor="middle" x="299" y="-186.5" font-family="Helvetica,sans-Serif" font-size="10.00">soil_cw_radar_cc_impl.h</text>
</a>
</g>
</g>
<!-- Node2 -->
<g id="node2" class="node">
<title>Node2</title>
<g id="a_node2"><a xlink:href="soil__cw__radar__cc_8h.html" target="_top" xlink:title=" ">
<polygon fill="white" stroke="black" points="149,-112.5 149,-142.5 257,-142.5 257,-112.5 149,-112.5"/>
<text text-anchor="start" x="157" y="-130.5" font-family="Helvetica,sans-Serif" font-size="10.00">gnuradio/SoilCW/soil</text>
<text text-anchor="middle" x="203" y="-119.5" font-family="Helvetica,sans-Serif" font-size="10.00">_cw_radar_cc.h</text>
</a>
</g>
</g>
<!-- Node1&#45;&gt;Node2 -->
<g id="edge1" class="edge">
<title>Node1&#45;&gt;Node2</title>
<path fill="none" stroke="midnightblue" d="M285.25,-179.48C272,-171.27 251.5,-158.56 234.28,-147.88"/>
<polygon fill="midnightblue" stroke="midnightblue" points="235.97,-144.82 225.63,-142.52 232.28,-150.77 235.97,-144.82"/>
</g>
<!-- Node6 -->
<g id="node6" class="node">
<title>Node6</title>
<g id="a_node6"><a xlink:title=" ">
<polygon fill="white" stroke="#bfbfbf" points="264,-56.5 264,-75.5 334,-75.5 334,-56.5 264,-56.5"/>
<text text-anchor="middle" x="299" y="-63.5" font-family="Helvetica,sans-Serif" font-size="10.00">libbladeRF.h</text>
</a>
</g>
</g>
<!-- Node1&#45;&gt;Node6 -->
<g id="edge6" class="edge">
<title>Node1&#45;&gt;Node6</title>
<path fill="none" stroke="midnightblue" d="M299,-179.3C299,-159.85 299,-112.49 299,-85.9"/>
<polygon fill="midnightblue" stroke="midnightblue" points="302.5,-85.62 299,-75.62 295.5,-85.62 302.5,-85.62"/>
</g>
<!-- Node7 -->
<g id="node7" class="node">
<title>Node7</title>
<g id="a_node7"><a xlink:href="bladerf__device_8h.html" target="_top" xlink:title=" ">
<polygon fill="white" stroke="black" points="328,-118 328,-137 416,-137 416,-118 328,-118"/>
<text text-anchor="middle" x="372" y="-125" font-family="Helvetica,sans-Serif" font-size="10.00">bladerf_device.h</text>
</a>
</g>
</g>
<!-- Node1&#45;&gt;Node7 -->
<g id="edge7" class="edge">
<title>Node1&#45;&gt;Node7</title>
<path fill="none" stroke="midnightblue" d="M309.46,-179.48C320.95,-170.11 339.63,-154.88 353.59,-143.51"/>
<polygon fill="midnightblue" stroke="midnightblue" points="356.02,-146.04 361.56,-137.01 351.6,-140.61 356.02,-146.04"/>
</g>
<!-- Node3 -->
<g id="node3" class="node">
<title>Node3</title>
<g id="a_node3"><a xlink:href="api_8h.html" target="_top" xlink:title=" ">
<polygon fill="white" stroke="black" points="0,-56.5 0,-75.5 114,-75.5 114,-56.5 0,-56.5"/>
<text text-anchor="middle" x="57" y="-63.5" font-family="Helvetica,sans-Serif" font-size="10.00">gnuradio/SoilCW/api.h</text>
</a>
</g>
</g>
<!-- Node2&#45;&gt;Node3 -->
<g id="edge2" class="edge">
<title>Node2&#45;&gt;Node3</title>
<path fill="none" stroke="midnightblue" d="M168.4,-112.4C143.9,-102.42 111.34,-89.15 87.75,-79.53"/>
<polygon fill="midnightblue" stroke="midnightblue" points="88.83,-76.19 78.24,-75.66 86.18,-82.67 88.83,-76.19"/>
</g>
<!-- Node5 -->
<g id="node5" class="node">
<title>Node5</title>
<g id="a_node5"><a xlink:title=" ">
<polygon fill="white" stroke="#bfbfbf" points="132,-56.5 132,-75.5 246,-75.5 246,-56.5 132,-56.5"/>
<text text-anchor="middle" x="189" y="-63.5" font-family="Helvetica,sans-Serif" font-size="10.00">gnuradio/sync_block.h</text>
</a>
</g>
</g>
<!-- Node2&#45;&gt;Node5 -->
<g id="edge4" class="edge">
<title>Node2&#45;&gt;Node5</title>
<path fill="none" stroke="midnightblue" d="M199.68,-112.4C197.79,-104.38 195.41,-94.23 193.37,-85.57"/>
<polygon fill="midnightblue" stroke="midnightblue" points="196.73,-84.59 191.04,-75.66 189.92,-86.19 196.73,-84.59"/>
</g>
<!-- Node2&#45;&gt;Node6 -->
<g id="edge5" class="edge">
<title>Node2&#45;&gt;Node6</title>
<path fill="none" stroke="midnightblue" d="M225.75,-112.4C240.99,-102.95 260.99,-90.56 276.24,-81.11"/>
<polygon fill="midnightblue" stroke="midnightblue" points="278.38,-83.9 285.03,-75.66 274.69,-77.95 278.38,-83.9"/>
</g>
<!-- Node4 -->
<g id="node4" class="node">
<title>Node4</title>
<g id="a_node4"><a xlink:title=" ">
<polygon fill="white" stroke="#bfbfbf" points="4.5,-0.5 4.5,-19.5 109.5,-19.5 109.5,-0.5 4.5,-0.5"/>
<text text-anchor="middle" x="57" y="-7.5" font-family="Helvetica,sans-Serif" font-size="10.00">gnuradio/attributes.h</text>
</a>
</g>
</g>
<!-- Node3&#45;&gt;Node4 -->
<g id="edge3" class="edge">
<title>Node3&#45;&gt;Node4</title>
<path fill="none" stroke="midnightblue" d="M57,-56.08C57,-49.01 57,-38.86 57,-29.99"/>
<polygon fill="midnightblue" stroke="midnightblue" points="60.5,-29.75 57,-19.75 53.5,-29.75 60.5,-29.75"/>
</g>
<!-- Node7&#45;&gt;Node6 -->
<g id="edge9" class="edge">
<title>Node7&#45;&gt;Node6</title>
<path fill="none" stroke="midnightblue" d="M361.54,-117.98C350.05,-108.61 331.37,-93.38 317.41,-82.01"/>
<polygon fill="midnightblue" stroke="midnightblue" points="319.4,-79.11 309.44,-75.51 314.98,-84.54 319.4,-79.11"/>
</g>
<!-- Node8 -->
<g id="node8" class="node">
<title>Node8</title>
<g id="a_node8"><a xlink:title=" ">
<polygon fill="white" stroke="#bfbfbf" points="352.5,-56.5 352.5,-75.5 393.5,-75.5 393.5,-56.5 352.5,-56.5"/>
<text text-anchor="middle" x="373" y="-63.5" font-family="Helvetica,sans-Serif" font-size="10.00">string</text>
</a>
</g>
</g>
<!-- Node7&#45;&gt;Node8 -->
<g id="edge8" class="edge">
<title>Node7&#45;&gt;Node8</title>
<path fill="none" stroke="midnightblue" d="M372.14,-117.98C372.28,-109.58 372.5,-96.48 372.69,-85.66"/>
<polygon fill="midnightblue" stroke="midnightblue" points="376.19,-85.57 372.86,-75.51 369.19,-85.45 376.19,-85.57"/>
</g>
<!-- Node9 -->
<g id="node9" class="node">
<title>Node9</title>
<g id="a_node9"><a xlink:title=" ">
<polygon fill="white" stroke="#bfbfbf" points="412,-56.5 412,-75.5 476,-75.5 476,-56.5 412,-56.5"/>
<text text-anchor="middle" x="444" y="-63.5" font-family="Helvetica,sans-Serif" font-size="10.00">volk/volk.h</text>
</a>
</g>
</g>
<!-- Node7&#45;&gt;Node9 -->
<g id="edge10" class="edge">
<title>Node7&#45;&gt;Node9</title>
<path fill="none" stroke="midnightblue" d="M382.32,-117.98C393.65,-108.61 412.07,-93.38 425.84,-82.01"/>
<polygon fill="midnightblue" stroke="midnightblue" points="428.22,-84.58 433.7,-75.51 423.77,-79.18 428.22,-84.58"/>
</g>
</g>
</svg>
